<svg id="Layer_1" data-name="Layer 1" xmlns="http://www.w3.org/2000/svg" viewBox="0 0 1285.43046 1000">
    <defs>
        <style>.cls-1{fill:#5fc690;}</style>
    </defs>
    <title>Startups Office Day</title>
    <path class="cls-1"
          d="M746.63933,366.72785c1.16707,2.67734,3.79951,2.30161,6.05759,2.70575q.12647-.24606.25339-.49166-3.027-1.38495-6.05347-2.76945Q746.768,366.45017,746.63933,366.72785Z"/>
    <path class="cls-1"
          d="M696.52285,352.059a12.97769,12.97769,0,0,0,7.67073,2.52018,17.06331,17.06331,0,0,0,3.78348-.45776c-1.75359-.92651-7.76536-2.08716-10.769-2.08716C696.95724,352.0343,696.72744,352.04209,696.52285,352.059Z"/>
    <path class="cls-1"
          d="M719.486,361.671c2.30642-.61676,5.19133-1.38289,8.81123-2.38821a28.78448,28.78448,0,0,0-4.55832-1.57718C723.12241,359.2026,721.54867,360.53554,719.486,361.671Z"/>
    <path class="cls-1"
          d="M680.39646,341.60809a12.10482,12.10482,0,0,0-7.98552,3.13419c5.47336.34366,10.53411.66074,15.78822.99066A8.89866,8.89866,0,0,0,680.39646,341.60809Z"/>
    <path class="cls-1"
          d="M792.49143,404.29636c0,9.37369,12.0421,10.05184,13.93109,10.05184a28.78742,28.78742,0,0,0,6.95477-.937c-1.63216-2.53943-15.94631-16.29226-19.15541-17.79429A28.78492,28.78492,0,0,0,792.49143,404.29636Z"/>
    <path class="cls-1"
          d="M774.63621,375.28866h-.06736q8.60973,5.93984,17.25657,11.90486a11.36359,11.36359,0,0,0,.83487-3.6648C792.66029,380.1274,785.94035,375.28866,774.63621,375.28866Z"/>
    <path class="cls-1"
          d="M471.47513,544.57356a11.14972,11.14972,0,0,0,1.42665-5.07518,8.43878,8.43878,0,0,0-.23209-1.98727c.01123.20069.0307.39818.0307.60346A27.18968,27.18968,0,0,1,471.47513,544.57356Z"/>
    <path class="cls-1"
          d="M466.00978,545.96332a17.959,17.959,0,0,0,2.11787-7.34792,9.019,9.019,0,0,0-1.04817-4.2229,49.08874,49.08874,0,0,0-1.085,10.31394Q465.99443,545.334,466.00978,545.96332Z"/>
    <path class="cls-1"
          d="M921.38339,442.92518a38.56018,38.56018,0,0,0-4.95444,3.7734A30.77254,30.77254,0,0,0,921.38339,442.92518Z"/>
    <path class="cls-1"
          d="M599.27608,373.52179c-.13334-.04537-.26646-.0834-.3998-.12739a2.33062,2.33062,0,0,1,.33977.76293c.03185-.00871.07286-.02062.10218-.02887Q599.29693,373.82536,599.27608,373.52179Z"/>
    <path class="cls-1"
          d="M611.02743,357.91456q-3.32079,1.06465-6.64158,2.1284.06186.26943.123.5384a10.48179,10.48179,0,0,0,6.67664-2.18476Q611.10647,358.156,611.02743,357.91456Z"/>
    <path class="cls-1"
          d="M731.4367,354.55264q-.09692.28319-.19383.56727,2.05854.675,4.11637,1.34944.078-.24537.15579-.49075Q733.47575,355.26517,731.4367,354.55264Z"/>
    <path class="cls-1"
          d="M623.64688,347.043a27.793,27.793,0,0,0-6.29449,1.04565c.38009,1.16386.65823,2.01568.9508,2.91149,6.8936-1.59779,4.153-.96,10.5325-2.45191A9.21627,9.21627,0,0,0,623.64688,347.043Z"/>
    <path class="cls-1"
          d="M503.84658,436.63253q-2.63725,3.99059-5.2745,7.98209.24811.16427.49624.329A8.94962,8.94962,0,0,0,503.84658,436.63253Z"/>
    <path class="cls-1"
          d="M593.94911,367.61128a6.88819,6.88819,0,0,1-1.54556-2.94677,25.5589,25.5589,0,0,0-4.46255,2.10641C590.18992,367.00873,592.17811,367.2942,593.94911,367.61128Z"/>
    <path class="cls-1"
          d="M639.56661,351.96327c0,.34137,2.01019,2.81161,6.16367,2.81161a23.474,23.474,0,0,0,12.97341-4.321c.129-.08615.12853-.36566.25431-.76339a160.205,160.205,0,0,0-19.35909,1.89288C639.58769,351.791,639.56661,351.89912,639.56661,351.96327Z"/>
    <path class="cls-1"
          d="M581.49668,363.88646q.14366.17871.28684.35695,3.50294-1.596,7.0061-3.19192-.099-.21169-.19818-.42293A15.02574,15.02574,0,0,0,581.49668,363.88646Z"/>
    <path class="cls-1"
          d="M844.67079,445.89074a4.92656,4.92656,0,0,1,.08706.66671c1.96162,3.38757,3.81418,6.58682,5.80168,10.01885a6.46081,6.46081,0,0,0,.58835-2.73,15.89779,15.89779,0,0,0-.42294-3.06316C850.03281,447.21819,848.59219,446.00942,844.67079,445.89074Z"/>
    <path class="cls-1"
          d="M534.47315,376.61611a25.37249,25.37249,0,0,0-.85846,4.65224Q533.98035,378.83868,534.47315,376.61611Z"/>
    <path class="cls-1"
          d="M511.21077,418.10693a4.8511,4.8511,0,0,0,.07469.86786c5.17163-5.57371,10.33547-11.13964,15.676-16.89573h-.00229C520.74872,402.07906,511.21077,412.16023,511.21077,418.10693Z"/>
    <path class="cls-1"
          d="M545.95829,358.73705a4.0894,4.0894,0,0,1,.38123.15809c-.0323-.13609-.06163-.27677-.10012-.40186C546.14844,358.568,546.05107,358.65824,545.95829,358.73705Z"/>
    <path class="cls-1"
          d="M536.88656,400.03589c3.86183-.06369,13.619-8.02471,15.9399-13.005C549.37336,388.79864,537.93931,398.12743,536.88656,400.03589Z"/>
    <path class="cls-1"
          d="M482.07522,459.24173a10.00684,10.00684,0,0,0,.83487,4.02862c1.92839-3.68313,3.74361-7.15043,5.55585-10.6127a3.85459,3.85459,0,0,1-.19749-1.19686,5.75391,5.75391,0,0,1,.0559-.7643c-.08363-.00641-.1716-.02428-.25271-.02428C486.03832,450.67221,482.07522,453.70833,482.07522,459.24173Z"/>
    <path class="cls-1"
          d="M482.80516,478.31626a8.19987,8.19987,0,0,0-.38169-2.60861c-2.14513,4.94413-3.92781,9.70177-5.61106,14.7522C480.08337,488.74018,482.80516,482.82646,482.80516,478.31626Z"/>
    <path class="cls-1"
          d="M462.30718,513.29083a8.1193,8.1193,0,0,0,2.10252,5.84681c1.32378-5.74738,2.64458-11.48285,3.99677-17.35348A14.10722,14.10722,0,0,0,462.30718,513.29083Z"/>
    <path class="cls-1"
          d="M823.10609,416.87709c2.26129,2.71812,4.24008,5.09671,6.33756,7.61826a8.7319,8.7319,0,0,0,.30013-2.14719C829.74378,419.175,827.35626,417.66659,823.10609,416.87709Z"/>
    <path class="cls-1"
          d="M991.03147,496.06381c3.2823-7.678,3.16947-7.29123,3.16947-7.67783,0-.09806-.02017-.20758-.02017-.4738,0-.04765.00825-.10172.01169-.15212A78.07055,78.07055,0,0,0,991.03147,496.06381Z"/>
    <path class="cls-1"
          d="M877.66014,554.82473v9.42317c2.95044-2.637,3.2382-5.19936,3.2382-5.94762C880.89834,556.72586,879.879,555.68617,877.66014,554.82473Z"/>
    <path class="cls-1"
          d="M870.97824,534.09146a16.53783,16.53783,0,0,0-1.733,4.14867c-.027.3267-.04536.653-.04536.97553,0,2.86476,1.05916,5.477,3.07507,6.2505C871.847,541.71156,871.4266,538.02431,870.97824,534.09146Z"/>
    <path class="cls-1"
          d="M847.32248,468.30841a4.94053,4.94053,0,0,1-1.27613,2.445,10.47188,10.47188,0,0,0-.78561,3.88886c0,.044-.00069.0976-.00069.15946,0,1.03969.21743,4.42818,7.92779,4.42818.9634,0,1.96345-.05407,3.01-.12738-2.15933-4.75672-4.14981-9.14091-6.29219-13.8596A16.93468,16.93468,0,0,0,847.32248,468.30841Z"/>
    <path class="cls-1"
          d="M603.89419,655.62953c-.33083-10.82118.11-5.428-.789-18.258C603.76029,656.58161,603.729,655.16909,603.89419,655.62953Z"/>
    <path class="cls-1"
          d="M841.70935,451.12859c-.09187.02841-.18855.04994-.28386.07377.12647.05819.25316.11685.36772.16083C841.7664,451.28163,841.73662,451.20878,841.70935,451.12859Z"/>
    <path class="cls-1"
          d="M979.96972,440.49207c0,10.80972,7.11034,11.147,7.11034,23.96047,0,10.36984-6.16367,19.65326-6.16367,32.52266,0,7.19625,1.74694,10.73458,2.65673,13.53243l.45455-.044c.566-1.53489-.24747-22.07663,18.32214-44.31526-2.93394-7.19809-10.09949-22.08134-22.203-34.61853C980.0325,434.23149,979.96972,437.20392,979.96972,440.49207Z"/>
    <path class="cls-1"
          d="M1003.56454,471.6103a81.30513,81.30513,0,0,0-5.94647,9.27654C999.89173,477.40075,1002.6165,473.6686,1003.56454,471.6103Z"/>
    <path class="cls-1"
          d="M851.05165,525.0037c0,.72122.05453.8344.05453,2.04363,0,.757-.022,1.573-.02245,2.539.00985.00275.0213.00367.03115.00642,4.5432-3.25378,11.174-3.6735,13.26553-3.6735,4.68432,0,11.25924,2.07891,12.58279,2.07891,2.38088,0,11.421-14.07587,14.13109-14.07587a2.09391,2.09391,0,0,1,2.04661,2.14169v.0362c0,1.09146-.05223,1.42-9.721,12.05515a13.85622,13.85622,0,0,0,1.42849.20895c9.35169,0,11.755-7.391,28.05644-7.391,6.68443,0,7.74955,2.63153,15.484,2.63153,3.65632,0,27.57785-3.96722,29.26041-3.96722,5.57188,0,9.10151,5.15812,15.81892,5.15812,3.51244,0,6.36849-1.21519,11.10459-2.7163-3.967-8.67032-8.06548-12.99632-8.06548-24.62167,0-14.11116,6.17535-23.92061,6.17535-33.43222a18.59353,18.59353,0,0,0-3.02948-10.19938,4.1629,4.1629,0,0,1-2.87392,1.08825c-10.83676,0-26.95674-18.39133-26.95674-40.14642,0-2.67185.22636-4.20778.22636-4.693,0-.09806.00252-.18649.00252-.269,0-1.02732-.36542-1.08689-10.19274-6.46311q-2.52109,3.5342-5.62687,7.33234a4.36839,4.36839,0,0,1-1.59894,1.92908q-2.50872,2.95755-5.404,6.06446c-7.256,7.76719-10.35563,20.835-10.35563,20.92939,0,.17275.04582.40873.06942.82112.69671-.43714,10.1153-6.69084,16.67464-6.69084a11.27542,11.27542,0,0,1,3.99562,1.08047c.554.20986,1.129,1.59779,1.129,1.958,0,1.606-6.30182,21.29779-23.82484,21.29779-3.44531,0-5.25526-.86786-6.27547-.86786-.96569,0-29.09911,12.98349-31.34024,35.42224C875.55877,510.06317,851.05165,512.9962,851.05165,525.0037Zm90.0267-46.17286a4.80587,4.80587,0,0,1,4.57755,4.551,4.14654,4.14654,0,0,1-4.03961,4.107,4.79136,4.79136,0,0,1-4.56794-4.58626A4.0594,4.0594,0,0,1,941.07835,478.83084Z"/>
    <path class="cls-1"
          d="M445.69028,639.04493c-9.96662-13.97965-25.80158-42.51539-25.80158-82.83227A89.17144,89.17144,0,0,1,422.98646,531.58c-2.87117,2.87667-5.732,5.7428-8.62474,8.641a49.12151,49.12151,0,0,1,2.2086,16.11677c0,13.28-1.98774,14.62482-1.98774,38.3154,0,24.11764.49533,23.30843,2.40425,33.23335A125.21266,125.21266,0,0,1,445.69028,639.04493Z"/>
    <path class="cls-1"
          d="M362.79248,404.05076c0,3.9805-.3432,6.39483-.3432,7.07895a4.90155,4.90155,0,0,0,.12784.631c3.92758-4.21511,12.81854-23.24612,12.81854-30.96565,0-3.80134-1.99873-6.89979-1.99873-14.0603a28.41974,28.41974,0,0,1,2.48031-11.79031c1.84706-4.11567,2.24158-6.26332,4.17456-6.26332,2.11306,0,2.38175,2.23283,2.5353,2.87712,4.608.25339,7.59077,8.8669,7.59077,15.1536a25.108,25.108,0,0,1-2.81847,11.36692c-5.66422,5.92974-.43118,25.83-24.27733,48.36358a2.699,2.699,0,0,0-1.03969,2.10182c0,2.182,2.91791,22.78287,2.91791,38.37818,0,26.1402-5.582,47.55575-11.26611,71.902,6.245-.56452,26.17846-3.86916,27.79412-3.86916,5.64886,0,9.14206,5.16224,15.86131,5.16224,3.4641,0,6.25829-1.1909,11.12635-2.72179-4.17-8.8582-8.08473-13.23-8.08473-24.6203,0-13.94346,6.18681-24.10069,6.18681-33.54265a17.16,17.16,0,0,0-2.19049-8.56952,4.19674,4.19674,0,0,1-2.51628.83029c-4.2559,0-27.09626-12.09-27.09626-37.57814,0-6.5937.73978-11.42649,5.05616-11.42649a3.97738,3.97738,0,0,1,.70061.0669,2.09878,2.09878,0,0,1,1.39618-.57,1.94385,1.94385,0,0,1,.23689.016c11.108,0,16.8451,14.90662,18.24059,16.13693,1.17807-7.81942,2.80839-14.00715,2.80839-15.78823,0-3.49846-2.78365-5.96778-2.78365-13.32578,0-8.41968,4.33356-15.06149,8.47238-15.06149,3.86641,0,4.63529,5.62824,4.63529,9.5084a30.03628,30.03628,0,0,1-1.85851,11.42556,4.81935,4.81935,0,0,1-1.535,3.54612c-2.78686,6.04614-6.27639,13.42293-6.27639,38.07805,0,9.5588,7.10186,10.67272,7.10186,23.22183,0,10.44224-6.171,19.65418-6.171,32.54007,0,7.24391,1.75862,10.75841,2.681,13.56314l.46-.06186a2.8639,2.8639,0,0,0,.22086-.7423c.397-27.07542,24.58708-54.71672,32.64134-54.71672,4.07192,0,5.06052,9.94141,5.06052,13.03756,0,13.51182-8.521,28.13114-10.2113,31.41516,9.47953,10.53617,17.45383,22.12991,24.95,34.63228.58949-2.60861,2.42372-21.65932,2.42372-21.75417,0-3.43294-5.17919-6.81044-5.17919-15.41891a14.65625,14.65625,0,0,1,2.15865-7.56969c5.61449-9.50153,9.68664-7.67005,11.31422-12.08219,8.63321-23.401,8.63688-22.05522,8.63688-23.6246,0-2.16369-2.53622-4.59085-2.53622-9.28938,0-9.10975,7.14768-12.60455,7.802-13.22314-.45752-1.21243-5.61266-7.53166-5.61266-18.8775,0-6.03743,2.94425-14.92633,5.17713-14.92633.49854,0,10.01221.99066,10.01221,27.206,0,.45867-.01008,1.00165-.01008,1.76916.65708-.80371.98607-1.15607,1.25917-1.54739,9.72055-13.92833,9.63189-13.3299,9.68641-15.47022.5911-23.19892,20.10942-27.21654,21.01783-27.21654,2.25556,0,3.45149.768,4.151.768.48089,0,.79546-.32258,1.66721-1.18173-2.74379-4.584-3.41095-9.65045-3.41095-14.24633,0-17.01029,16.4563-30.1592,18.51346-30.1592a1.60985,1.60985,0,0,1,.78744.21628c2.21065,1.21839,2.3291,2.75158,2.3291,6.26791,0,.422-.00183.87244-.00183,1.35448,0,10.80469-2.073,14.8608-5.93113,26.24742,20.09659-10.01244,31.697-30.62749,44.43554-30.62749,3.52252,0,4.115,1.6065,6.86817,1.6065h.00848c1.74946,0,1.03419-.00412,17.529-5.44129a23.3326,23.3326,0,0,1-.64929-4.00937,4.07284,4.07284,0,0,1,2.6872-4.09919,21.88587,21.88587,0,0,1,7.97911-1.67889c7.65538,0,10.034,4.98445,12.15527,4.98445.02979,0,.03941.00183.05613.00183.12739,0,.661-.10264,13.49143-1.8663a18.16163,18.16163,0,0,0-1.53021-1.07039c-8.28451-4.51708-13.42086-14.66056-13.42086-16.311a1.92909,1.92909,0,0,1,1.881-2.03813c.09416,0,22.43806,1.97994,29.73168,17.73563,4.69738-3.64647,7.86089-6.8975,13.63439-6.8975a16.66394,16.66394,0,0,1,6.484,1.41634c8.057,3.39629,4.96566,7.60223,9.71345,8.47467,9.6115,1.76642,20.48171,4.10514,21.90378,4.10514,2.42051,0,4.4-1.35127,9.50954-1.35127a21.59479,21.59479,0,0,1,6.39507.95125c10.47156,3.22079,9.1991,8.58006,12.86665,10.36435,17.76312,8.6442,18.22707,9.06668,22.9146,9.266,27.047,1.14966,27.58219,11.18088,27.58219,13.444,0,2.37767-.984,4.62842-.984,6.22438,0,.08569-.00138.16221-.00138.23369,0,.91643.24858.921,7.14379,6.69909a58.16426,58.16426,0,0,1-.84724-8.613,39.439,39.439,0,0,1,2.56325-13.78079c.62959-1.69906,1.11759-2.62786,3.01-2.62786a3.52215,3.52215,0,0,1,3.2453,1.90205c1.01059,1.8104,6.4024,10.62965,6.4024,22.09142,0,7.2439-2.01683,11.00126-2.01683,12.29846a1.83979,1.83979,0,0,0,.76957,1.497c.93109.76155,1.40442,2.539,4.41031,2.539.52465,0,.70679-.04536,1.36341-.04536,1.11828,0,12.139.866,12.139,10.82164,0,2.89179-.67632,4.90656-.67632,6.0663,0,1.8214.40094,1.29629,6.43355,10.34189,2.47711,3.7152,15.60334-1.09651,15.60334,14.732,0,4.8085-2.30574,6.31786-2.30574,7.63018,0,.13334-.00664.2117-.00664.27493,0,.63738.66945-.28913,15.52842,38.3571,7.40084-7.45148.1661-10.25758,11.35385-26.11179-3.62882-2.09953-9.51779-7.74244-9.51779-19.95614,0-12.64945,8.08038-25.48128,12.58462-26.00639,1.46629-2.303,2.78251-3.71658,3.53856-3.71658a3.97627,3.97627,0,0,1,3.63982,2.89454,69.1583,69.1583,0,0,1,2.81527,19.40811c0,8.21853-1.40832,12.32413-1.51279,14.57946,12.13766-6.51734,12.47549-6.10154,15.65053-10.96048-.49342-4.04434-2.08007-37.43468-2.08007-37.53506v-.006c0-.28.01833-4.589,4.27056-4.589.14342,0,.27653.00779.411.01513A1.90221,1.90221,0,0,1,911.847,407.261c3.72115,0,1.65919,6.7724,3.50648,21.93241,3.98852-7.45651,2.79465-6.65052,11.818-17.25221-3.85152-3.09341-7.947-10.927-9.73682-18.4697-1.90709-8.03616-37.54171-11.37974-51.00083-66.56659-6.19781-25.413-4.24971-107.95386-119.831-107.95386-78.42174,0-138.12886,60.01917-203.49493,60.01917-8.82452,0-41.7204-2.2063-46.42419-2.2063-99.85333,0-129.79533,80.647-136.56658,109.252A62.24022,62.24022,0,0,1,362.79248,404.05076Zm480.49794-18.115a4.165,4.165,0,0,1,4.06092,4.12118,4.58968,4.58968,0,0,1-4.46323,4.37869,4.02509,4.02509,0,0,1-4.0261-4.068A4.57836,4.57836,0,0,1,843.29042,385.93572Zm-51.089-63.344a4.04714,4.04714,0,0,1,2.5479-.9178,4.12662,4.12662,0,0,1,4.038,4.04786c0,2.182-.32488,1.93321-14.98727,19.014a4.4069,4.4069,0,0,1-3.17222,1.875,4.19629,4.19629,0,0,1-4.34891-4.09277C776.2789,339.74454,792.10653,322.66827,792.20138,322.59175Zm-50.73827-53.12488A5.034,5.034,0,0,1,746.338,274.109a4.05617,4.05617,0,0,1-4.04534,4.08039c-1.058,0-4.98812-.92742-4.98812-4.53219A4.2367,4.2367,0,0,1,741.46311,269.46687ZM585.41235,304.86941c4.66439,0,4.94092,3.54749,4.94092,4.2174,0,2.8927-2.73118,4.3457-4.91732,4.3457-2.31582,0-4.90106-1.8214-4.90106-4.41764C580.53489,308.109,580.901,304.86941,585.41235,304.86941ZM493.362,332.48688c3.31518.02108,2.76235.31526,14.61451,23.31256a6.97241,6.97241,0,0,1,1.0051,3.12685,4.03383,4.03383,0,0,1-4.02381,3.98738c-3.18573,0-2.77792-.52053-14.91464-24.01958a4.97691,4.97691,0,0,1-.64792-2.34285A4.04854,4.04854,0,0,1,493.362,332.48688Zm-53.45388,13.67861a5.09781,5.09781,0,0,1,4.92168,4.68616c0,3.12731-2.57241,4.10972-4.62681,4.10972-.98448,0-4.63232-.36382-4.63232-4.11751A4.624,4.624,0,0,1,439.90807,346.16549Z"/>
    <path class="cls-1"
          d="M366.44467,643.34985c0-.01695-.00252-.1063-.00252-.285,0-12.36628,1.49218-11.44573,1.49218-12.14313,0-.03024-.00894-.13655-.00894-.318,0-2.55867,1.97582-2.90783,3.93858-3.34588a96.31383,96.31383,0,0,1,21.04325-2.32773,110.3418,110.3418,0,0,1,18.83146,1.74947,3.579,3.579,0,0,0,.18764-1.16478v-.01467c0-.71206-.00207-.16679-.477-2.89316a4.24294,4.24294,0,0,1-.66441.06965c-4.38808,0-36.96-21.614-36.96-56.84283,0-7.01984,1.576-13.82982,2.41-15.719a4.28153,4.28153,0,0,1,3.90719-2.62327,4.20285,4.20285,0,0,1,1.54578.3015,1.3718,1.3718,0,0,1,.65846-.17183c1.42,0,2.06517,1.25963,6.18589,4.3874,16.51586,12.53582,19.99577,28.25715,21.81053,30.11108.09393-.67449,1.78566-18.29832,1.78566-24.437a62.9746,62.9746,0,0,0-.87427-11.68309c-4.64148,2.86705-13.39406,3.63-15.04157,3.63-9.7957,0-12.32916-3.82333-17.29575-3.82333-6.19932,0,.51982,2.58438-27.95449,3.83891-12.47855,40.4374-13.42247,53.56431-13.42247,63.43974,0,44.19017,23.58588,52.34409,40.81107,67.99531C370.70469,668.90124,366.44467,656.08316,366.44467,643.34985Z"/>
    <path class="cls-1"
          d="M537.04854,412.35635c-5.10588-.16129-7.91244-2.26633-9.25821-4.40573-4.05016,3.991-9.58263,10.25254-13.66166,15.14718,2.57654,1.45437,2.81665,5.84819,2.81665,9.672,0,12.062-7.76627,23.67455-20.02762,23.67455a16.64982,16.64982,0,0,1-4.74848-.70931c-1.74831,3.38024-3.02925,5.8326-3.96538,7.62147,3.9411,2.07067,5.04768,11.38525,5.10244,14.83514-.17114,16.8884-15.92569,24.89019-20.39167,25.37269-1.39,5.37622-2.26747,8.46688-2.26747,8.94342,0,.24377.0323.49533.0323.7391a3.63313,3.63313,0,0,0,1.44475-1.18586c8.21349-8.70148,17.01372-11.54791,18.486-11.54791a2.03393,2.03393,0,0,1,2.23723,2.14627c0,.10008-1.851,18.85294-16.27049,24.30734a19.18723,19.18723,0,0,1,4.93656,12.60135c0,8.84261-6.58591,16.87327-15.25807,19.88191,29.69411,54.82715,35.61561,92.9753,37.56737,98.08989,5.06648-2.78182,24.51377-14.7073,52.09826-14.7073,28.54375,0,39.17913,10.944,43.11634,12.68611-.23644-5.73867-.4612-11.19554-.6958-16.89435-.72719-.04628-1.21679-.11089-1.68348-.11089-.9902,0-31.76065.98333-35.13448.98333-1.98934,0-2.733-.71436-3.076-2.69934-.0165-.09439-9.22843-157.01942-9.22843-157.11336,0-55.58182,56.39882-98.92567,117.53282-98.92567,17.04144,0,67.51464,4.101,94.01453,47.52047,13.72168,22.48227,36.14256,191.63154,36.14256,191.72639,0,1.89031-1.38169,1.68309-8.56586,2.63336a8.49768,8.49768,0,0,1-2.20034.31021c-.03987,0-.07423-.00413-.11364-.00459-9.8933,1.30546-24.31375,3.19788-26.86669,3.78165,1.16615,2.32222,2.22715,4.43459,3.3154,6.60149,5.13108-1.82507,11.52821-4.5684,26.69556-4.5684a155.24991,155.24991,0,0,1,54.92222,10.20076c14.305-20.64667,19.95752-25.49182,22.59064-28.54719-1.64659-1.32058-1.63926-4.06161-2.29382-4.84149-2.83222-3.37246-2.53507-6.58271-2.933-8.367-20.28743-7.89091-20.3021-24.31559-20.3021-25.43776v-.005a4.291,4.291,0,0,1,4.252-4.589,3.99736,3.99736,0,0,1,1.52792.30288c.20436-.01512.41674-.02566.64814-.02566,7.86341,0,17.51,9.30266,21.106,12.58577,3.94156-7.61919,4.19243-7.63981,4.19243-10.75337,0-.45409-.00527-.97371-.00527-1.5923,0-3.88611-.05545-7.77268-.06736-11.6588a4.03616,4.03616,0,0,1-1.5231.31022c-3.15572,0-10.87709-6.59508-10.87709-16.28631a17.83335,17.83335,0,0,1,2.74516-9.64861,19.03989,19.03989,0,0,0-9.24355,2.30848,5.3916,5.3916,0,0,1,.14388,1.13179c0,4.649-8.05311,6.4874-10.47088,6.4874-.33175,0-.66464-.01467-.99639-.01467q-.19966.00413-.39841.00413c-12.98235,0-23.91465-14.11162-23.91465-21.86277a4.27488,4.27488,0,0,1,2.77563-4.08681c-.00046-.06-.0055-.11868-.0055-.17871,0-1.52631.27264-2.98893,2.33781-2.98893a5.52708,5.52708,0,0,1,.8997.08065c15.17124,2.51147,17.28544,6.65006,22.472,10.69746,2.4377-7.99079,10.82256-12.58668,15.391-15.46014-1.56435-2.11741-3.27944-6.77607-7.49684-16.60843-.01948-.00183-.05247-.00229-.09852-.00229-.10676,0-.28318.00275-.51961.00275-15.53117,0-18.72172-11.61252-18.72172-15.88353a12.03237,12.03237,0,0,1,3.16855-8.01325c-12.08083-2.06481-22.24743-15.61251-22.24743-15.71262,0-.02245.003-.07423.003-.23414,0-.14892-.00274-.30334-.00274-.45868a2.15493,2.15493,0,0,1,.30356-1.38472c1.00464-1.11575,2.11649-2.16277,3.72712-2.16277a53.41031,53.41031,0,0,1,8.49139.63188,12.98385,12.98385,0,0,1-3.90261-9.71093c0-2.034.636-5.67086,2.63473-7.42216-3.01092-3.61622-5.08045-6.15931-6.53413-7.93993-2.17212,2.56767-11.71177,3.51771-15.24364,3.51771-.25729,0-.38307.00825-.83945.00825-5.62389,0-21.42219-2.29932-21.42219-21.9512,0-3.798,1.08557-11.99709,3.142-13.95033a164.94023,164.94023,0,0,0-15.5582-10.51235c-1.58611,1.30637-5.01217,2.35889-12.38507,2.35889-14.74487,0-19.65921-6.26516-21.55714-9.83923a13.77811,13.77811,0,0,1-7.944,2.57516c-3.36009,0-6.69039-1.343-15.30412-4.23894-.57048-.19153-3.30762-1.32882-3.30762-3.43706a2.18327,2.18327,0,0,1,.33587-1.33249,36.50509,36.50509,0,0,1-7.75344,1.11163c-14.26146-.20712-16.788-12.30122-17.013-15.46748-7.72755-.46463-11.83934-.72535-14.0603-.872-1.35219,3.56628-6.991,14.59275-23.15356,16.73352-12.23615-.43209-18.02958-9.07355-19.41132-12.9757-1.58771.35007-2.944.642-4.10285.88893a5.06,5.06,0,0,1,.12967,1.014c0,3.43035-3.12225,16.09778-18.38171,18.1998a1.44342,1.44342,0,0,1,.11776.5242,2.30442,2.30442,0,0,1-1.76046,2.22784c-3.31151,1.28391-12.27464,5.2186-22.97577,5.2186-6.57331,0-9.83786-1.20877-11.956-2.39738C569.45115,383.49848,557.88835,406.461,537.04854,412.35635ZM512.63444,597.7241a4.05934,4.05934,0,0,1-4.37526-4.101,4.38047,4.38047,0,0,1,8.75808.00641A4.08926,4.08926,0,0,1,512.63444,597.7241Zm2.92913-94.03286a4.44913,4.44913,0,0,1-4.214-4.4378,4.21036,4.21036,0,0,1,4.33378-4.282,4.15787,4.15787,0,0,1,4.30493,4.129A4.79407,4.79407,0,0,1,515.56357,503.69124Zm311.751,96.81147c2.89477,0,4.57962,1.72564,4.57962,4.15875,0,4.05062-4.59222,4.11614-5.03394,4.11614l-.03024-.00046a4.09678,4.09678,0,0,1-4.40207-4.12347C822.42793,601.1882,825.81849,600.50271,827.31456,600.50271Zm-24.9729-133.02733a4.15937,4.15937,0,0,1,4.11339,4.12438,4.418,4.418,0,0,1-4.29163,4.4378,4.30613,4.30613,0,0,1-4.27835-4.27009A4.42353,4.42353,0,0,1,802.34166,467.47538Z"/>
    <path class="cls-1"
          d="M990.4083,524.60459a53.15812,53.15812,0,0,1,2.27343,16.82929c0,14.36088-1.9717,13.68914-1.9717,37.14191,0,13.09851.12761,18.89034.4557,22.61287a4.51782,4.51782,0,0,1,.17824,1.28162c0,.07653-.01924.14755-.02314.2227.22246,1.85668.51435,3.28127.88985,5.25983,8.49529-.9737,15.34078-2.24937,29.84005-2.24937,1.74488,0,3.58094.02245,5.46924.08065q.522-7.73924.52145-15.40241c0-31.63373-6.37055-62.36752-15.34559-92.90015A108.95779,108.95779,0,0,1,990.4083,524.60459Z"/>
    <path class="cls-1"
          d="M875.6983,532.55735a3.43316,3.43316,0,0,0-.19749.61218c0,.13426.91047,8.98374,1.46743,14.80581.27332,2.85605,8.45313,3.602,8.45313,10.05963,0,4.78513-5.67452,11.3408-7.1069,13.61263-1.28552,2.03859-3.26661,26.87425-3.26661,26.96819a2.33615,2.33615,0,0,0,1.17349,2.20584c34.68681-29.6744,57.41789-34.91912,57.68732-34.91912a1.37553,1.37553,0,0,1,.95813.53382,4.21823,4.21823,0,0,1,2.81847-1.01724c6.618,0,8.73448,19.65143,8.73448,30.68064a143.25508,143.25508,0,0,1-3.16328,29.61255,149.77433,149.77433,0,0,1,44.46624-16.72619c-.10814-.76614-.21307-1.5089-.31663-2.24113-.10012.00779-.19749.03116-.29876.03116-4.40114,0-37.23562-19.66288-37.23562-58.38747a46.55,46.55,0,0,1,2.40838-14.68393,4.26937,4.26937,0,0,1,3.88519-2.58616,4.01428,4.01428,0,0,1,3.21827,1.45666,5.214,5.214,0,0,1,1.12858.79088c7.52754,6.70642,15.88582,9.83236,25.60638,33.48079.96316-1.04244,2.11786-21.92875,2.11786-24.46222,0-2.35155-.09874-12.358-2.16139-15.76852-5.2131,1.01678-7.51678,2.69292-12.64969,2.69292-7.77108,0-11.48262-5.13932-16.09271-5.13932-.3306,0-25.26248,3.96217-29.43567,3.96217-1.82209,0-2.30642-.12646-3.12594-.12646-.36221,0-.71916.01649-1.05687.01649-.26347.55856-2.158,26.33586-21.3727,26.33586-1.91144,0-2.94357-.95217-2.94357-2.70347a5.80443,5.80443,0,0,1,.12784-1.15928c3.82586-18.66672,11.00768-22.847,12.59676-25.007-16.74337.60255-14.562,7.51654-29.72709,7.51654C880.08112,533.00457,879.29322,532.84236,875.6983,532.55735Z"/>
    <g id="tpcvHN.tif">
        <path d="M990.40818,524.60449a53.15533,53.15533,0,0,1,2.27361,16.82937c0,14.36068-1.97184,13.68893-1.97184,37.14205,0,22.51842.3766,23.45462,1.50066,29.377,8.49532-.97384,15.341-2.24929,29.84019-2.24929a113.67508,113.67508,0,0,1,17.84318,1.16753,42.9393,42.9393,0,0,1,.66526,7.57407c0,59.05014-105.963,151.7758-185.7788,151.7758-34.0225,0-42.41626-18.75708-44.37209-21.12759-4.74251,2.41632-14.37225,7.53667-24.95076,7.53667-5.75092,0-7.69551-1.84423-8.74138-1.84423-2.81982,0-41.88411,30.26311-106.62734,30.26311-44.71659,0-76.26509-14.57-93.88494-23.40433A35.26676,35.26676,0,0,1,558.083,762.151c-19.59211,0-27.89612-7.5825-32.80664-7.796-85.49582-3.71654-158.83176-58.11084-158.83176-111.00527,0-.01689-.00235-.10616-.00235-.28515,0-12.36613,1.49215-11.44557,1.49215-12.14285,0-.03018-.0091-.1364-.0091-.31823,0-2.55863,1.97579-2.9078,3.9387-3.34583a96.327,96.327,0,0,1,21.04311-2.32766,110.34832,110.34832,0,0,1,18.83162,1.74946,3.577,3.577,0,0,0,.18746-1.16456v-.0149c0-.98422-.0031.43828-1.25525-7.70673a64.34954,64.34954,0,0,1-32.54648-53.9611c0-1.24568.5428-16.211,4.22186-16.211,1.42,0,2.06529,1.25955,6.186,4.38722,16.51577,12.53574,19.99562,28.25719,21.81051,30.11125.09373-.67464,1.78567-18.29862,1.78567-24.43729,0-10.21229-1.348-13.63445-1.878-15.91069-10.71842,2.77878-12.51991,2.92048-13.3194,2.92048-.09079,0-.16866-.00183-.2452-.00183-5.79631,0-11.21718-5.14515-15.557-5.14515-1.35,0-25.76979,3.90574-29.46409,3.90574a23.99965,23.99965,0,0,1-4.23266-.36056c-2.20509,25.691-18.875,26.58048-21.18531,26.58048-1.931,0-2.975-.93527-2.975-2.67275,0-1.66933,2.96951-18.28652,12.90626-25.92133a8.76246,8.76246,0,0,0-1.22087-.25418c-12.80363,0-14.76946,7.52409-28.52565,7.52409-7.81488,0-12.64851-2.648-19.344-2.648-10.58646,0-12.23483,6.84258-20.05683,6.84258-11.01479,0-22.15885-11.82778-22.15885-22.2948,0-.07158-.00075-.15784-.00075-.25582,0-1.07352.09-3.55413,2.24227-3.55413.12052,0,17.72977,2.12494,22.93535,10.93052,3.66983-1.8604-5.60375-1.16112,17.95084-16.90423-.509-16.07231-.55034-17.20188-.55034-17.23955l0-.00107.00122.01145.00032-.01019c0-2.22819,1.24814-2.79729,2.17165-2.79729,3.21439,0,1.85353,4.50534,2.73379,15.0951a9.82074,9.82074,0,0,0,3.8188-5.33233c1.89417-6.362-.9922-9.0659,10.914-24.79218-1.28-1.71327-7.46716-6.00434-7.46716-17.93935,0-12.01843,8.01463-27.62815,11.58522-27.62815,4.94328,0,5.93442,17.37135,5.93442,21.86551a73.55294,73.55294,0,0,1-1.583,14.83058,3.30585,3.30585,0,0,0,.446.14337c.12123,0,5.59924-3.19763,9.28413-5.13777,7.30021-3.84366,10.34775-14.77914,10.34775-16.00542,0-.68861-2.10891-28.29384-2.10891-30.21479,0-2.20233,1.25291-2.74823,2.1703-2.74823a2.13522,2.13522,0,0,1,2.0864,1.85255c.52736,2.18815.80022,18.66746,1.70641,19.82007,3.948-8.01407,3.0243-7.02806,14.395-20.28572-2.54129-4.06633-10.58133-13.27495-10.58133-32.36957,0-5.03683,1.89778-21.75105,6.94875-21.75105,3.24273,0,12.53932,14.69257,12.53932,34.22187,0,3.98045-.34335,6.39506-.34335,7.07889a4.87611,4.87611,0,0,0,.128.63091c3.92752-4.2151,12.81844-23.24591,12.81844-30.96559,0-3.80134-1.99873-6.89977-1.99873-14.06a28.41961,28.41961,0,0,1,2.4804-11.79057c1.84691-4.11585,2.24137-6.26316,4.17457-6.26316,1.46624,0,2.08653.99142,2.43282,2.44188,1.22569,5.13363,2.04618,8.99622,2.04618,13.18944a22.11539,22.11539,0,0,1-3.74553,12.87606c-3.35533,4.89412,1.9756,22.27961-30.13047,57.34626-6.81823,7.447-9.90138,20.29061-9.90138,20.38489,0,.17234.06588.40255.108.79617,10.49161-6.58525,16.04037-6.63588,16.37207-6.63588l.01172,0a12.9956,12.9956,0,0,1,4.10335.92374,1.85759,1.85759,0,0,1,1.25627,1.9019c0,2.9892-6.956,21.42925-23.70563,21.42925-3.53682,0-5.33912-.81425-6.3559-.81425-.869,0-29.02708,12.85985-31.36175,35.45468-1.8041,17.45993-26.26769,20.26877-26.26769,32.41269,0,.852.07286.96188.07286,2.08407,0,.6618-.0261,1.33464-.0261,2.03.17552,0,.33983.03118.47552.03118.54147,0,4.74068-3.29129,12.36585-3.29129,5.484,0,11.77925,2.075,13.03216,2.075,2.38518,0,11.46367-14.08321,14.13131-14.08321a2.138,2.138,0,0,1,2.072,2.06453c0,1.25453-.46772,1.92667-9.70011,12.161a6.61442,6.61442,0,0,0,1.08346.24774c10.62537,0,11.28085-7.41689,28.34933-7.41689,6.46734,0,7.894,2.61725,15.54972,2.61725,3.72667,0,27.40189-3.95217,29.16836-3.95217,5.64887,0,9.142,5.1619,15.86121,5.1619,3.46433,0,6.25853-1.19077,11.12646-2.72153-4.1699-8.85832-8.08465-13.23029-8.08465-24.62041,0-13.94334,6.18661-24.10079,6.18661-33.54266,0-5.91582-2.37728-8.8488-5.28642-13.92669a10.14806,10.14806,0,0,1-1.26355.08067c-11.048,0-21.38215-24.714-21.38215-35.48031,0-7.37871,2.49-7.92075,3.28222-7.92075a1.9372,1.9372,0,0,1,.23682.01607c11.10814,0,16.84516,14.9065,18.24052,16.13682,1.17809-7.81913,2.80844-14.007,2.80844-15.78806,0-3.49834-2.78349-5.96772-2.78349-13.32561,0-8.41966,4.33342-15.0616,8.47241-15.0616,3.86623,0,4.635,5.6283,4.635,9.50831,0,18.84245-9.66971,12.00956-9.66971,53.04957,0,9.55874,7.10175,10.67275,7.10175,23.22217,0,10.442-6.17107,19.654-6.17107,32.54,0,7.24406,1.75878,10.75845,2.68106,13.56306l.46-.062a2.85463,2.85463,0,0,0,.22089-.74237c.397-27.07539,24.58713-54.71653,32.64154-54.71653,4.0718,0,5.06035,9.9414,5.06035,13.03771,0,13.51159-8.52105,28.13111-10.21118,31.415,9.47945,10.53629,17.45383,22.13008,24.94992,34.63238.58945-2.60846,2.42357-21.65943,2.42357-21.75409,0-3.43292-5.17906-6.81079-5.17906-15.4189a14.65608,14.65608,0,0,1,2.15877-7.57c5.61445-9.5013,9.68638-7.67,11.31419-12.08222,8.63312-23.40092,8.63686-22.0548,8.63686-23.62435,0-2.16375-2.53637-4.59092-2.53637-9.28945,0-9.10989,7.1479-12.60472,7.802-13.22307-.45753-1.21231-5.61264-7.53186-5.61264-18.87743,0-6.03779,2.94426-14.92648,5.1771-14.92648.49866,0,10.01231.9908,10.01231,27.20582,0,.45911-.01014,1.00186-.01014,1.76928.65722-.80352.9862-1.156,1.25934-1.54735,9.72033-13.92821,9.6318-13.32985,9.68631-15.47036.59111-23.19864,20.10936-27.21635,21.01786-27.21635,2.25555,0,3.45131.76775,4.1509.76775.48093,0,.7954-.32264,1.66711-1.18142-2.74375-4.58412-3.41092-9.65053-3.41092-14.2467,0-17.0102,16.45625-30.15909,18.51353-30.15909a1.61,1.61,0,0,1,.78746.21644c2.21055,1.21857,2.329,2.75155,2.329,6.268,0,.422-.00171.87248-.00171,1.35444,0,10.80485-2.07286,14.86083-5.93111,26.24748,20.09662-10.01257,31.69679-30.62753,44.43549-30.62753,3.52259,0,4.115,1.60656,6.86819,1.60656h.00857c1.74947,0,1.03417-.00442,17.52879-5.44138a23.34045,23.34045,0,0,1-.64922-4.00926,4.07251,4.07251,0,0,1,2.68721-4.09914,21.88377,21.88377,0,0,1,7.97907-1.679c7.6555,0,10.034,4.98434,12.15535,4.98434.02969,0,.03941.00177.05614.00177.12731,0,.66095-.10246,13.49142-1.86635a18.14107,18.14107,0,0,0-1.53036-1.0702c-8.28433-4.51712-13.42067-14.66082-13.42067-16.31122a1.92886,1.92886,0,0,1,1.881-2.038c.094,0,22.438,1.97989,29.73161,17.73556,4.69731-3.64647,7.861-6.89741,13.63445-6.89741a16.66035,16.66035,0,0,1,6.48385,1.41654c8.057,3.39612,4.9657,7.60189,9.71342,8.47442,9.61149,1.76638,20.4819,4.105,21.90381,4.105,2.42049,0,4.40017-1.351,9.50957-1.351a21.584,21.584,0,0,1,6.39508.95135c10.47159,3.22086,9.19917,8.57985,12.8667,10.36444,17.76306,8.64383,18.22689,9.06658,22.91469,9.26585,27.047,1.14972,27.58209,11.18074,27.58209,13.44394,0,2.3776-.984,4.62825-.984,6.22448,0,.08543-.0015.1622-.0015.23346,0,.91673.24866.92106,7.14375,6.699a58.18847,58.18847,0,0,1-.84718-8.61274,39.43691,39.43691,0,0,1,2.56323-13.78091c.6295-1.699,1.11768-2.62795,3.01015-2.62795a3.5223,3.5223,0,0,1,3.24513,1.90222c1.01077,1.81044,6.40252,10.62959,6.40252,22.0912,0,7.24421-2.01693,11.00156-2.01693,12.29849a1.84015,1.84015,0,0,0,.76954,1.49717c.93129.7614,1.40446,2.53867,4.4103,2.53867.52475,0,.7068-.04513,1.36355-.04513,1.11817,0,12.13894.8658,12.13894,10.82179,0,2.89161-.67639,4.90619-.67639,6.06593,0,1.82169.40111,1.29669,6.43356,10.34227,2.47729,3.71518,15.6034-1.09665,15.6034,14.73187,0,4.8085-2.30569,6.3176-2.30569,7.62994,0,.13369-.00656.21213-.00656.27523,0,.6373.66932-.28934,15.52817,38.3572,7.987-8.04158-1.08793-10.66164,14.36089-30.12273-1.74247-2.29332-7.48391-6.32256-7.48391-18.07033,0-12.26692,8.5874-27.59822,11.08229-27.59822a3.97667,3.97667,0,0,1,3.64,2.89494,69.16178,69.16178,0,0,1,2.81521,19.40782c0,8.21862-1.40841,12.32427-1.51271,14.57937,3.782-2.03061,7.48988-3.96763,11.13466-6.01681,3.83944-2.1585,8.87235-12.0115,8.87235-15.06186,0-.25213-2.104-24.02-2.104-30.18454,0-.03659-.00047-.08272-.00047-.13681,0-.6914.07657-2.684,2.187-2.684,3.72106,0,1.65916,6.7727,3.50642,21.93271,4.36407-8.15845,2.51569-6.41659,14.64467-20.55877-2.51012-4.05557-10.57871-13.11513-10.57871-32.40714,0-8.04984,2.71551-21.70317,6.938-21.70317,4.098,0,12.57627,16.284,12.57627,34.34964,0,3.53319-.25691,4.87132-.367,7.33382l.5216.45752c.57954-1.3555,12.43894-20.81176,12.43894-31.18091,0-3.63076-2.01143-6.9576-2.01143-14.06058a28.45688,28.45688,0,0,1,2.4679-11.77062c1.86409-4.16928,2.26443-6.294,4.18048-6.294,1.79282,0,2.22354,1.54142,2.429,2.40846,1.20949,5.10469,2.05422,8.9612,2.05422,13.20244a22.157,22.157,0,0,1-3.72469,12.86858c-2.592,3.79529.81683,24.16943-29.694,56.82976-7.25607,7.7673-10.35553,20.83534-10.35553,20.92952,0,.17287.04582.40851.06931.821.69678-.43715,10.11526-6.69066,16.67474-6.69066a11.27957,11.27957,0,0,1,3.99548,1.08027c.55413.20979,1.129,1.59791,1.129,1.95828,0,1.606-6.30164,21.2976-23.82477,21.2976-3.44541,0-5.25535-.868-6.27548-.868-.96564,0-29.09906,12.98392-31.34025,35.42256-1.74261,17.44424-26.24959,20.37714-26.24959,32.38455,0,.72115.05428.83427.05428,2.04344,0,.76453-.02241,1.58826-.02241,2.56638,4.544-3.27384,11.20059-3.6941,13.2967-3.6941,4.68446,0,11.25931,2.07886,12.583,2.07886,2.3809,0,11.42093-14.07583,14.13095-14.07583a2.09387,2.09387,0,0,1,2.04662,2.14158V516.1c0,1.09171-.05225,1.42-9.721,12.05524a13.86746,13.86746,0,0,0,1.42842.20917c9.35171,0,11.755-7.391,28.0566-7.391,6.68433,0,7.74944,2.63133,15.48381,2.63133,3.6563,0,27.57789-3.96715,29.26048-3.96715,5.5719,0,9.10153,5.15812,15.81881,5.15812,3.51248,0,6.36856-1.21524,11.1047-2.71643-3.9669-8.67034-8.06547-12.99628-8.06547-24.62178,0-14.11114,6.17541-23.92049,6.17541-33.43225,0-6.10865-2.44075-9.01511-5.32725-14.14509a7.72684,7.72684,0,0,1-1.60981.17328c-9.0824,0-21.01871-21.99964-21.01871-36.06643,0-.56216.02664-7.2417,3.57189-7.2417,10.28882,0,16.34141,13.13074,18.05611,16.51243.36-1.628,2.93126-14.51977,2.93126-16.18,0-3.71168-2.74443-6.02784-2.74443-13.28522,0-8.52081,4.34649-15.14727,8.47153-15.14727,2.25464,0,4.6399,2.01133,4.6399,9.52659,0,18.94343-9.68353,11.27858-9.68353,52.32024,0,10.80967,7.11044,11.147,7.11044,23.9606,0,10.36972-6.16376,19.65328-6.16376,32.52254,0,7.19618,1.747,10.73469,2.65673,13.53255l.45451-.0442a2.41484,2.41484,0,0,0,.24551-.69141c.7894-27.74847,24.70993-54.765,32.62154-54.765,4.20024,0,5.10407,10.17151,5.10407,13.20751C1021.99865,481.23856,1013.19125,504.29773,990.40818,524.60449ZM598.34144,638.62435c-.72707-.04615-1.21662-.11118-1.68328-.11118-.99029,0-31.76068.9836-35.13454.9836-1.98928,0-2.73312-.71456-3.07614-2.69918-.01632-.09443-9.22823-157.01953-9.22823-157.1134,0-55.58176,56.39869-98.92589,117.53287-98.92589,17.04134,0,67.51446,4.10114,94.01454,47.52039,13.72161,22.48227,36.14249,191.6318,36.14249,191.72634a1.58719,1.58719,0,0,1-1.49408,1.66c-1.9694.37493-32.42884,4.18641-36.25256,5.06091,1.16619,2.3221,2.22709,4.43462,3.31536,6.6015,5.131-1.82526,11.52824-4.56841,26.69563-4.56841a155.2604,155.2604,0,0,1,54.92216,10.20048c23.75061-34.27878,23.6541-25.00339,25.47756-36.29083-2.57946-1.31964-3.42352-2.99639-3.42352-4.84654a14.38672,14.38672,0,0,1,1.282-4.98081c-20.78424-5.3466-22.93025-21.759-22.93025-23.211,0-1.57383.98638-2.18082,3.084-2.18082,7.86339,0,17.51,9.30246,21.106,12.5858,3.94175-7.61945,4.19252-7.63986,4.19252-10.75356,0-.45394-.00533-.97362-.00533-1.59218,0-4.31239-.07464-8.62539-.07464-12.93808,0-.36118.0005-.57972.0005-.60969,0-4.161-8.12184-4.99224-8.12184-14.66216,0-3.08107.843-4.84955,1.76472-8.946-.99233-.08589-1.96825-.13456-2.92818-.13456-11.17166,0-12.5984,6.8384-20.7051,6.8384-8.86216,0-21.7677-9.81252-21.7677-23.04255,0-1.52618.27251-2.98913,2.33773-2.98913a5.53872,5.53872,0,0,1,.89984.08076c15.17131,2.51134,17.28527,6.65,22.47188,10.69777,3.405-11.16179,18.41672-15.70129,18.41672-18.17166,0-.67962-5.995-17.58386-7.28009-20.24554-1.527.07531-2.76416.1708-4.35005.1708-8.43441,0-12.66985-3.4002-12.66985-8.73873,0-2.65791,1.59308-7.2383,2.05225-8.48275a27.97646,27.97646,0,0,1-13.63557-3.94961c-5.13224-3.22374-13.058-11.87113-13.058-12.26027,0-.02254.00281-.07413.00281-.2341,0-.14878-.00251-.30351-.00251-.45847a2.15507,2.15507,0,0,1,.30353-1.38513c1.00448-1.11564,2.11639-2.16283,3.727-2.16283,13.95777,0,19.0556,4.3377,21.53107,5.29739-3.75756-11.52362-13.21635-5.688-13.21635-17.68139,0-.73254.03409-1.00047.03409-1.35653a3.43935,3.43935,0,0,0-.79251-2.36067c-10.385-12.45838-9.88557-12.532-11.31335-12.532-.59626,0-5.37905,1.46052-9.95851,1.46052-8.39347,0-18.53807-4.33349-18.53807-14.61125,0-4.253,2.26245-10.35908,2.26245-11.54,0-1.74246-23.949-18.3241-28.84543-18.38057-16.77808-.19347-16.73007-2.04478-19.60691-7.0089-3.1211,2.7378-6.73023,6.47935-12.67482,6.47935-3.36022,0-6.69037-1.343-15.30421-4.23869-.57042-.19177-3.3077-1.329-3.3077-3.43706,0-2.6252,1.71365-2.41641,17.76525-6.87327-2.00708-.99737-3.86258-1.24972-5.55229-1.92586a13.05392,13.05392,0,0,0-4.87422-1.0055c-4.357,0-6.58126,2.72033-13.62069,2.72033-12.12831,0-11.95406-8.23358-15.104-8.42164-20.16862-1.20406-19.50878-1.24143-19.95642-1.24143l-.10976.00017a5.80229,5.80229,0,0,0-4.26377,1.86379,29.2186,29.2186,0,0,1-18.79246,8.03526c-8.54642,0-11.08694-6.676-13.034-6.676a2.81827,2.81827,0,0,0-.61922.076c-14.07682,3.17955-13.66818,2.54328-14.51,4.3249a14.62194,14.62194,0,0,1-13.5024,8.12809c-4.85706,0-6.00428-1.75688-8.25994-1.75688a4.68092,4.68092,0,0,0-2.13587.54668c-2.5608,1.285-2.37967.7651-6.021,2.82,16.17393,1.71214,19.2981,5.81574,19.2981,7.20968a2.30384,2.30384,0,0,1-1.76058,2.22769c-3.31148,1.2841-12.2744,5.21888-22.9758,5.21888-10.77375,0-12.67737-3.24737-15.17016-4.33007-5.89357,5.614-19.69059,27.64358-30.51146,27.64358-2.23983,0-3.00129-.73044-4.00465-.73044-2.3194,0-15.88908,15.44537-21.6215,22.68646-2.00264,2.52972-1.05637,5.02915-2.99722,13.006-2.70532,11.11889-12.91857,9.99869-14.32567,12.73192-7.98544,15.51117-8.22058,15.51545-8.22058,16.29167,0,.04858.00092.10017.00092.15878,0,1.426,1.69348,3.82856,1.69348,9.115a21.22192,21.22192,0,0,1-10.94445,18.51814c-.91824.5279-1.86762.64683-2.38682,2.723-2.01261,8.04787-3.36757,12.67427-3.36757,13.26661,0,.24369.03225.49565.03225.73936a3.63757,3.63757,0,0,0,1.44489-1.18588c8.2134-8.70178,17.01372-11.5482,18.486-11.5482a2.03405,2.03405,0,0,1,2.237,2.14665,3.9,3.9,0,0,1-.17307,1.1028c-2.37261,8.00924-4.00771,22.239-22.91475,24.90563,1.702,3.968,2.94089,6.41507,2.94089,9.44652a9.63309,9.63309,0,0,1-.10409,1.42155c-1.90632,12.7998-7.41743,11.4998-7.41743,15.98342a7.20986,7.20986,0,0,0,.88022,3.56309c29.86844,55.02562,35.80751,93.33112,37.7637,98.45729,5.06656-2.78208,24.51379-14.70711,52.09837-14.70711,28.54373,0,39.179,10.94379,43.1162,12.68572C598.801,649.78015,598.57617,644.323,598.34144,638.62435Zm9.49584-202.4287c-32.94123,28.92523-40.98981,71.1849-40.98981,93.38768,0,23.72439,5.07127,31.52968,16.89975,33.32147,20.6635,3.13,16.11047-8.368,19.99786,92.06886.15737,4.06514,16.32451,15.4791,36.61552,15.4791,15.797,0,24.76364-5.86754,27.26242-7.49424,4.22926-2.75329-.74265-6.86554,5.41942-54.04222,2.16232-16.55465.65576-14.8586,7.39376-15.84344,0-.741.00519-1.42432.00519-2.086,0-2.77314-.15039-4.4828-.15039-6.77253,0-33.60909,37.39243-35.88725,39.79258-54.78507.50606-3.98405.21528-15.39538,10.21822-15.39538,3.72187,0,2.75736,2.335,5.78991,2.335.64522,0,1.02944-.09135,1.92231-.09135a7.30839,7.30839,0,0,1,7.02063,4.07513c2.51688,4.94632,1.62625,2.34925,6.25853,8.62044,5.152-3.62083,5.8075-12.42561,5.8075-17.09968,0-1.59538-.07637-2.70951-.07637-2.972,0-12.53384-1.72921-29.87755-2.86137-41.46648-.51413-5.26184-1.10311-12.55622-7.51309-12.55622-15.20276,0-15.89694,21.46338-15.89694,27.51922,0,.60862.007,1.06161.007,1.32156,0,4.12324.25873,13.74615.25873,19.55167,0,3.32346-.13024,3.72068-4.94874,3.72068-32.33519,0-31.09147-45.54006-66.1263-45.54006-3.32642,0-4.93781.44885-10.92478.44885C627.50372,461.90067,620.98605,456.566,607.83728,436.19565Zm69.14161,180.31241c-.433,2.615-2.98053,23.24957-2.98053,52.36088,0,65.92885,14.25414,105.23124,25.99837,105.23124,34.63244,0,97.38939-39.74087,97.38939-45.49482,0-4.77414-30.19069-81.56356-54.57861-122.26418-7.79543,1.83088-19.36119,5.28437-21.00249,5.28437a2.21222,2.21222,0,0,1-2.294-2.30773c0-3.69125,7.60241-2.757,20.83411-7.55477-6.55527-10.70621-6.20873-10.99781-8.08293-10.99781-.26137,0-51.04307,7.04493-52.743,7.47473a62.538,62.538,0,0,0-1.64745,12.18925,6.08108,6.08108,0,0,0,.06628,1.04364c.4059,0,.82067.00988,1.2381.00988,1.04448,0,13.24145-.5979,14.18635-.5979,1.08233,0,2.90856.18469,2.90856,2.37083C696.271,616.225,693.83211,615.55459,676.97889,616.50806Zm-7.54065,67.01653a48.99555,48.99555,0,0,1-22.00573,5.2939c-48.93441,0-35.63252-41.24233-90.64372-41.24233-31.716,0-52.05479,15.00658-52.05479,15.89871,0,1.08317,2.04505,10.60259,2.04505,21.32782,0,2.63751-.11284,4.07358-.11284,4.5099,0,4.162,57.92705,87.09826,163.57791,87.09826a162.47873,162.47873,0,0,0,21.25031-1.21755C686.7611,768.04738,673.47962,758.53849,669.43824,683.52459Zm150.95457,54.88988q.04611.29251.09227.585a13.38833,13.38833,0,0,0,1.3779.15194c82.71559,0,209.99371-124.63453,210.34054-128.49154-2.35061-.3065-8.03305-.46662-11.68151-.46662-56.87235,0-90.99085,29.28375-93.30168,34.49468C889.34786,730.08554,820.48666,738.378,820.39281,738.41447ZM931.99754,633.053c16.75722-12.23325,35.46077-19.73046,55.72508-24.06677-.33365-2.3634-.64382-4.56005-.93453-6.61885a63.728,63.728,0,0,1-32.52883-53.77773c0-3.38853.90568-16.28432,4.10158-16.28432a3.45561,3.45561,0,0,1,2.1514,1.061c7.52731,6.70613,15.88558,9.83205,25.60612,33.48039.9634-1.04233,2.11794-21.9286,2.11794-24.4623,0-2.351-.09873-12.3578-2.16132-15.76831-5.21319,1.01663-7.51673,2.69284-12.64973,2.69284-7.77116,0-11.48262-5.139-16.09281-5.139-.33046,0-25.26238,3.96208-29.43547,3.96208-1.82216,0-2.30651-.12665-3.12595-.12665-.36225,0-.71928.01658-1.05691.01658-.26342.55864-2.15806,26.33584-21.37266,26.33584-1.91156,0-2.94363-.95218-2.94363-2.70332a5.80459,5.80459,0,0,1,.128-1.15962c3.82569-18.66674,11.00755-22.84677,12.59651-25.007-16.74326.60269-14.562,7.51664-29.72688,7.51664-2.31434,0-3.10232-.16207-6.69713-.44738a3.43689,3.43689,0,0,0-.1975.61239c0,.13411.91054,8.9838,1.46745,14.80594.27325,2.856,8.45318,3.60195,8.45318,10.05925,0,4.78552-5.67464,11.34112-7.10691,13.61281-1.28563,2.03883-3.26674,26.87407-3.26674,26.96806a2.33651,2.33651,0,0,0,1.17371,2.20624c34.68671-29.67458,57.41766-34.9194,57.68723-34.9194,2.8545,0,5.67579,14.49453,5.67579,25.65C939.58451,611.32575,934.03464,626.08428,931.99754,633.053Zm-559.929-1.13436c1.33313,1.68853,154.41132,115.94329,156.53907,116.8836C527.18614,744.5982,484.21343,629.467,392.906,629.467,389.72828,629.467,380.15886,629.66305,372.06858,631.91868Zm555.78227-58.60221-.28444-.32081c-36.62342,12.50229-105.547,72.66593-105.547,148.84888a69.64461,69.64461,0,0,0,.37337,8.04674l.46271.14683Q875.35312,651.67729,927.85085,573.31647Zm-86.43217,69.9746c-.97873-1.0272-23.99125-9.8754-51.84949-9.8754-16.23962,0-22.59714,3.243-24.90476,4.15356,13.80982,28.86768,27.42769,57.57832,37.11666,88.0443.59136-.32132-.64071,1.27573,15.60346-15.23376C820.30391,707.41312,816.28168,686.99623,841.41868,643.29107ZM738.01179,520.77955a10.5131,10.5131,0,0,0-1.62573.14553,42.4627,42.4627,0,0,1,.80063,8.54559c0,20.79675-8.43137,26.18573-10.03045,26.18573a2.14163,2.14163,0,0,1-2.12083-2.10181c0-3.65961,7.3532-4.041,7.3532-22.54029,0-11.47094-2.03606-12.40259-2.80838-12.40259a1.67,1.67,0,0,0-.28268.035c-1.935,0-4.22825,2.21736-4.309,7.245-.439,27.35118-40.05343,25.81177-40.05343,58.89836a62.82515,62.82515,0,0,0,.51555,7.43824c.26328.05151.35286.08529.419.08529l.02371-.00157c45.02127-6.17076,37.39215-3.53541,45.95055-11.83388,16.15552-15.66462,17.896-38.248,17.896-38.92291,0-.97677-.34644-8.0625-2.52731-9.63933-2.17136,21.97334-8.78947,28.43644-10.48626,28.43644a2.10218,2.10218,0,0,1-2.09372-2.14595c0-2.86042,7.78958-9.67895,7.78958-28.93217a21.14264,21.14264,0,0,0-.95077-5.88672A3.17135,3.17135,0,0,0,738.01179,520.77955ZM425.83936,552.60643a186.71389,186.71389,0,0,1,1.817-25.7052l-13.2947,13.31995a49.11858,49.11858,0,0,1,2.2087,16.11639c0,13.28022-1.98772,14.6252-1.98772,38.31569,0,24.11774.49537,23.30829,2.40423,33.23324A130.86155,130.86155,0,0,1,452.55952,642.88C434.60259,614.70976,425.83936,584.62112,425.83936,552.60643Zm13.298-26.81189-.40069.28257c.0445.11675,61.26069,155.68752,63.02341,158.48119a15.332,15.332,0,0,0,.42254-3.63363C502.18266,657.43325,481.394,580.12446,439.1374,525.79454Zm75.74434,183.35853a275.49447,275.49447,0,0,1,20.03778,43.84952,60.40342,60.40342,0,0,0,22.911,4.59547,34.02246,34.02246,0,0,0,13.673-2.53068C552.30836,744.18521,534.382,730.62581,514.88174,709.15307ZM958.70116,548.46884c0,16.69659,9.55442,35.14219,23.07993,45.11948-.89566-2.4287-21.79923-52.76215-22.18273-52.76215-.06026,0-.12246.01494-.18352.02106A39.77967,39.77967,0,0,0,958.70116,548.46884Zm-574.93389,7.58251a37.89537,37.89537,0,0,0-.9144,8.43054c0,17.06063,10.29127,35.711,22.85923,44.2617C398.29811,590.9417,391.03269,573.49652,383.76727,556.05135ZM781.58,747.46044a17.00766,17.00766,0,0,0,4.80344.63983c9.08474,0,20.26515-6.10065,21.26049-6.61966a3.88987,3.88987,0,0,0,2.10941-2.67717c2.428-8.88323,4.26867-14.743,5.13952-18.3228C808.635,723.69655,804.20475,730.77469,781.58,747.46044Zm207.0381-237.65209a21.87967,21.87967,0,0,0,.4312,4.41425l.53721.14827q12.08385-26.16235,24.16775-52.3247C1004.51375,465.91834,988.61806,491.988,988.61806,509.80835Zm-550.986-32.43467-.313-.23893c-8.84041,5.52325-24.78339,29.14446-24.78339,47.95762a13.29926,13.29926,0,0,0,.70573,5.09424C421.53147,512.23624,429.58177,494.805,437.63207,477.37368Zm95.90011-94.26682a28.23373,28.23373,0,0,0,2.00463,10.09365c5.2812-5.52006,11.06769-22.97958,11.06769-31.62615a10.80769,10.80769,0,0,0-.36508-3.08127C541.22724,362.61411,533.53218,372.65268,533.53218,383.10686Zm355.2918,63.214a53.57731,53.57731,0,0,0-1.88045-14.88854c-1.3063,1.071-6.81013,10.904-6.81013,21.01528,0,8.50732,4.29765,12.27034,4.95547,13.06783C887.46662,462.08142,888.824,454.29854,888.824,446.32081ZM312.7157,461.54854c0-5.70181-.67565-11.26123-2.04233-14.75783-1.29989,1.43674-6.66658,11.12687-6.66658,20.82194,0,5.949,2.37769,11.15878,5.03783,13.10292C311.47933,477.23511,312.7157,469.26155,312.7157,461.54854Zm128.73661,22.27862a16.55548,16.55548,0,0,0-.29566-3.13114c-1.24157,2.151-22.34506,48.22875-22.34506,48.27185a.38154.38154,0,0,0,.068.17076c.02837.04384.09343.064.14367.09737C422.39639,527.31184,441.45231,502.44257,441.45231,483.82716ZM806.42263,414.3484a28.7927,28.7927,0,0,0,6.95473-.93727c-1.63211-2.53914-15.94651-16.29216-19.15542-17.79424a28.78634,28.78634,0,0,0-1.73053,8.67966C792.49141,413.67,804.53349,414.3484,806.42263,414.3484ZM994.83744,513.598l.36571.25222c5.35493-6.46576,22.35515-26.22289,22.35515-46.01854,0-.64584-.01952-1.29276-.01952-1.93859l-.60413-.11913Q1005.88607,489.686,994.83744,513.598Zm-10.62615,73.98579a21.05585,21.05585,0,0,0,.31146-3.7712c0-13.272-9.65721-34.75086-18.26379-39.337C972.31234,559.01137,978.26184,573.29756,984.21129,587.58378Zm-576.0159,15.555a12.64676,12.64676,0,0,0,.5784-4.11524c0-11.99768-10.40479-35.13229-18.60708-39.17172ZM249.368,531.53465c3.02281,12.2617,12.69167,16.47663,17.40318,16.47663a5.64316,5.64316,0,0,0,3.61808-.9305C269.65025,539.75218,258.7085,532.17064,249.368,531.53465Zm576.79206-15.16654q-.30739,0-.6107.01435c2.47645,11.206,11.27232,16.25391,18.68286,16.25391a2.7148,2.7148,0,0,0,2.34862-1.07027C844.83749,524.09937,834.43288,516.36811,826.16007,516.36811Zm78.20079,32.82513q.054.00084.10807.00084c6.907,0,14.474-10.31679,14.474-18.59708a11.68734,11.68734,0,0,0-.32994-2.82718C915.21,529.17387,909.63053,529.97082,904.36086,549.19324ZM338.744,468.747c8.09913,0,16.97635-6.76452,18.45471-14.82882a5.52613,5.52613,0,0,0-.68008-.03972c-6.17673,0-19.76464,8.75925-20.95031,14.49557A13.32425,13.32425,0,0,0,338.744,468.747Zm593.99748-30.15537c-6.53344,0-18.52673,7.9742-21.24794,14.39553a13.389,13.389,0,0,0,3.41421.43042c8.05,0,16.74633-6.67024,18.42946-14.80232Q933.04779,438.59148,932.74148,438.59162Zm-589.906,105.82266q0-.5727-.04173-1.16375c-5.27485.27972-12.56984,9.60815-14.44917,21.32157C336.47759,564.26377,342.83548,553.57068,342.83548,544.41428ZM824.535,451.26861c-.62416,0-1.2387.02489-1.84.07637,4.29684,3.8806,10.26966,10.54808,19.47886,10.54808a10.65758,10.65758,0,0,0,4.1696-.823C843.58477,456.00493,833.14383,451.26861,824.535,451.26861ZM487.52642,506.55483c-6.58726,1.82174-16.72071,11.69067-17.7258,17.1644a1.33327,1.33327,0,0,0,.84619.19217C482.24764,523.9114,487.306,509.0295,487.52642,506.55483Zm324.18-101.74027c.02981-.08826,1.44909-3.197,1.44909-9.25542,0-8.35745-3.44135-16.90449-4.73938-17.70744a40.0014,40.0014,0,0,0-1.58912,10.83393C806.827,390.83277,807.02632,398.98716,811.70645,404.81456Zm-327.6733,22.27259c0,7.508,2.90735,15.3193,6.30369,17.67417.075-1.10921.22472-2.031.22472-2.9124,0-21.20418-4.60414-23.09648-4.91673-23.39877A21.66048,21.66048,0,0,0,484.03315,427.08715Zm115.285-52.95844-.04218-.60692a38.35229,38.35229,0,0,0-12.37406-2.13634,36.32073,36.32073,0,0,0-14.78878,3.22823c1.61723,1.24075,3.92535,2.30329,10.43317,2.30329A60.57438,60.57438,0,0,0,599.31818,374.12871ZM849.86905,572.562c1.95724,7.66493,11.1452,15.43288,17.67386,15.43288a7.48163,7.48163,0,0,0,1.08429-.07653C866.49738,582.7179,855.75037,573.84706,849.86905,572.562ZM641.72551,331.64016l-.24134.45368c4.40436,7.55027,11.66175,10.65538,19.8414,12.7908C660.9334,341.05652,655.04064,335.36889,641.72551,331.64016ZM849.90572,465.243c-.61.57283-4.64487,4.33119-4.64487,9.39917,0,.04409-.00077.09779-.00077.15987,0,1.03926.21731,4.42809,7.92779,4.42809.96338,0,1.96341-.054,3.01-.12772C854.03845,474.346,852.048,469.96159,849.90572,465.243ZM774.6363,375.28849l-.06757,0q8.60994,5.93971,17.25671,11.90483a11.35876,11.35876,0,0,0,.83479-3.66472C792.66023,380.12719,785.94029,375.28849,774.6363,375.28849Zm-40.004-12.03928c-5.51995,0-10.53014,1.96042-15.6189,3.55439a25.57114,25.57114,0,0,0,9.70561,2.48786c4.07089,0,7.1935-2.24713,10.16275-5.6374A22.22379,22.22379,0,0,0,734.63235,363.24921ZM383.55652,431.48645q-.01174.24581-.0117.50588c0,7.57292,7.37952,23.896,13.60247,27.36382Q390.57021,445.3151,383.55652,431.48645ZM959.822,416.12729l-.3948.12271c.50631,11.18227,9.39532,25.21921,13.66714,27.91368l.27383-.28121Q966.59507,430.00488,959.822,416.12729ZM348.929,383.65817a28.03181,28.03181,0,0,0-1.11338,8.49471c0,8.16666,2.26077,17.85743,5.65317,22.16183Zm576.11569-15.31888a28.14672,28.14672,0,0,0-1.1121,8.49926c0,8.20158,2.28143,17.90442,5.652,22.152C928.04039,388.565,926.54252,378.45215,925.04466,368.33929Zm-398.08314,33.7398h-.00245c-6.21029,0-15.74836,10.08095-15.74836,16.02805a4.86031,4.86031,0,0,0,.07469.86787ZM639.599,351.58338c-.0114.20746-.03227.31594-.03227.37978,0,.34127,2.01014,2.81166,6.16366,2.81166a23.47481,23.47481,0,0,0,12.97336-4.32108c.12886-.08595.12853-.3655.25434-.7633A160.2291,160.2291,0,0,0,639.599,351.58338ZM357.46734,410.90232a24.27145,24.27145,0,0,0,.81407-6.96236c0-8.31713-2.3053-19.39316-5.23419-22.88156C354.53534,391.106,356.00134,401.00414,357.46734,410.90232Zm576.18505-14.878a22.78538,22.78538,0,0,0,.81942-6.85453c0-8.36842-2.31719-19.91145-5.30872-23.41614C930.656,375.81976,932.12681,385.73752,933.65239,396.02427Zm51.58971-7.86118a18.72228,18.72228,0,0,0-.51246-4.39974c-2.45815,1.80649-3.9126,6.522-3.9126,10.84409a11.7359,11.7359,0,0,0,1.67166,6.64627C983.7752,396.85176,985.2421,392.62368,985.2421,388.16309ZM408.98,403.42123a17.41156,17.41156,0,0,0-.46687-4.34412c-2.44485,2.0126-3.82139,6.41592-3.82139,10.67971a15.2364,15.2364,0,0,0,1.31366,6.515C407.75208,413.93854,408.98,408.1587,408.98,403.42123Zm564.92965,31.42555.49537-.08975c-.838-9.39373-5.71687-18.217-10.45943-21.1105l-.245.27183Q968.80514,424.38256,973.90961,434.84678Zm-586.009-5.79618c1.86683,5.44219,9.18,19.95937,10.48174,21.16309C397.2188,441.8204,394.54684,434.42873,387.90065,429.0506ZM468.40653,501.784A14.108,14.108,0,0,0,462.3072,513.291a8.1188,8.1188,0,0,0,2.10244,5.84651C465.73336,513.39028,467.05435,507.65486,468.40653,501.784Zm211.99-160.17611a12.10435,12.10435,0,0,0-7.98549,3.13445l15.78824.99057A8.89948,8.89948,0,0,0,680.3965,341.60787ZM482.07509,459.2416a10.00874,10.00874,0,0,0,.835,4.02876c2.25029-4.29836,4.34662-8.30268,6.4642-12.34756a3.73032,3.73032,0,0,0-1.30262-.25061C486.03838,450.67219,482.07509,453.70848,482.07509,459.2416Zm70.75134-72.21081c-3.45307,1.76769-14.8871,11.09662-15.93994,13.00525C540.74838,399.97205,550.50568,392.01118,552.82643,387.03079ZM844.3657,445.88031c2.11046,3.64446,4.07306,7.03362,6.1938,10.69586a6.46159,6.46159,0,0,0,.58834-2.72976,15.88616,15.88616,0,0,0-.42283-3.06308C850.01465,447.12479,848.5241,445.94423,844.3657,445.88031ZM482.80526,478.31609a8.19865,8.19865,0,0,0-.38165-2.60836c-2.14532,4.94386-3.928,9.70157-5.61124,14.752C480.08349,488.74005,482.80526,482.82649,482.80526,478.31609Zm140.84167-131.273a27.79974,27.79974,0,0,0-6.29449,1.04537l.95065,2.91176c6.89378-1.598,4.15306-.96,10.53264-2.452A9.21517,9.21517,0,0,0,623.64693,347.04307ZM377.76606,366.66684a26.63366,26.63366,0,0,0,.58312,5.3296,18.6333,18.6333,0,0,0,1.76723-8.1278,27.54929,27.54929,0,0,0-.53551-5.21187A17.68079,17.68079,0,0,0,377.76606,366.66684Zm578.46347-17.99878a30.7533,30.7533,0,0,0-.51616-5.32321,17.77644,17.77644,0,0,0-1.84235,8.06491,25.87128,25.87128,0,0,0,.58411,5.27067A17.6941,17.6941,0,0,0,956.22953,348.66806Zm-85.3488,184.568a11.11762,11.11762,0,0,0-1.68089,5.97947c0,2.86465,1.05932,5.47736,3.07522,6.25069C871.81571,541.43719,871.36658,537.498,870.88073,533.236Zm10.01768,25.06449c0-1.57471-1.01942-2.61449-3.23833-3.47578V564.248C880.6105,561.61074,880.89841,559.04836,880.89841,558.30053Zm-51.15476-135.9526c0-3.17286-2.38745-4.68122-6.63746-5.47072,2.26118,2.71808,4.24,5.0967,6.33754,7.61813A8.73937,8.73937,0,0,0,829.74365,422.34793ZM468.1277,538.61543a9.021,9.021,0,0,0-1.04814-4.223,49.08782,49.08782,0,0,0-1.08517,10.314q0,.62778.01548,1.257A17.95944,17.95944,0,0,0,468.1277,538.61543ZM704.19349,354.57912a17.0625,17.0625,0,0,0,3.78361-.45769c-1.75358-.92658-7.7655-2.0873-10.769-2.0873-.25083,0-.48067.00809-.6853.02509A12.97708,12.97708,0,0,0,704.19349,354.57912Zm-200.34688,82.0533q-2.63726,3.99112-5.27448,7.98225l.49611.32875A8.94884,8.94884,0,0,0,503.84661,436.63242ZM818.05625,732.9326a20.8334,20.8334,0,0,0-.8095-4.2724c-.72416,2.54452-1.44837,5.089-2.253,7.91621C817.31011,735.47939,818.05625,734.48249,818.05625,732.9326Zm-65.3594-363.499.25343-.49161q-3.02679-1.38478-6.05348-2.76957l-.25755.55526C747.80648,369.40505,750.4387,369.02957,752.69685,369.43359Zm-171.2-5.54691.28664.35693q3.50312-1.596,7.0062-3.192l-.19823-.42327A15.02619,15.02619,0,0,0,581.49682,363.88668Zm22.88914-3.84381.123.53856a10.48188,10.48188,0,0,0,6.67661-2.1847l-.1582-.482Zm127.05062-5.49037-.1936.56735,4.11628,1.34944.15578-.49087Z"/>
        <path d="M744.69952,498.76956c-4.1755.83457-3.82048.88094-4.53028.88094-1.25432,0-1.80136-.77053-1.80136-2.53733,0-2.18616.64233-8.53205.6961-9.10617,1.34349-14.34623,1.146-16.20709,3.73819-16.20709,1.49655,0,2.33089,1.06766,2.33089,2.62941,0,.98738-1.74236,17.84752-1.74236,18.785,0,.33893.01665.70825.01665,1.15475.38513,0,.7258-.00385,1.05-.00385,1.68444,0,4.18559.0457,4.67764,3.31223.73414,4.87252,1.65279,14.23087,1.65279,14.33554a3.67055,3.67055,0,0,1-.17351,1.06225,2.15839,2.15839,0,0,1-2.18553,1.65051C744.52745,514.72572,746.835,507.797,744.69952,498.76956Z"/>
        <path d="M651.89915,532.50269c2.65553.462,6.2136.5498,6.2136,3.122l0,.01454a2.25648,2.25648,0,0,1-2.5209,2.288c-.99965,0-2.29763-.37391-3.98545-.37391-6.18129,0-8.09947,5.2187-8.45287,7.24-.34834,1.99214-1.07138,2.90111-2.3324,2.90111-2.34488,0-2.38786-2.27845-2.38786-2.8595C638.43331,536.0247,647.81307,532.59937,651.89915,532.50269Z"/>
        <path d="M617.57513,474.82021c1.23281.40333,3.79655.69936,3.79655,2.88184,0,.34562-.28589,2.3169-2.154,2.3169-.58515,0-.90813-.23129-1.96879-.23129a8.72234,8.72234,0,0,0-4.55357,1.56994c-8.8525,5.43388-5.85377,9.24771-9.13058,9.24771a2.38578,2.38578,0,0,1-2.39813-2.40351C601.16661,485.18291,607.009,476.17062,617.57513,474.82021Z"/>
        <path d="M666.21366,488.196c-8.90857-.6859-12.92458-6.2668-12.92458-8.987a2.26807,2.26807,0,0,1,2.31271-2.09053c2.98461,0,2.42124,6.16547,10.42592,6.16547a10.01485,10.01485,0,0,0,3.08823-.96148c.51509-.18487.95532-.93814,2.09562-.93814a2.40253,2.40253,0,0,1,2.2715,2.33927,1.73311,1.73311,0,0,1-.44546,1.18582C670.24361,487.98558,667.94974,487.806,666.21366,488.196Z"/>
        <path d="M605.23445,506.29611a9.1043,9.1043,0,0,1,1.92752,1.02276c4.86863,4.5264,4.95316,5.19476,4.95316,5.98773l-.00011.08624a2.325,2.325,0,0,1-2.25307,2.26229,2.85,2.85,0,0,1-1.91118-.83654c-4.84067-4.45891-4.8962-5.10265-4.8962-5.86221C603.05457,507.5711,604.377,506.99285,605.23445,506.29611Z"/>
        <path d="M662.42778,514.75387a2.473,2.473,0,0,1-2.73325-2.47818,1.78833,1.78833,0,0,1,.81431-1.55149c1.93693-1.24908,6.26232-3.77153,7.11832-3.77153a2.48756,2.48756,0,0,1,2.12745,2.44244,2.11086,2.11086,0,0,1-.64461,1.49761A27.13807,27.13807,0,0,1,662.42778,514.75387Z"/>
        <path d="M612.77532,500.88825c0-.66657-.029-1.32066-.029-1.96619,0-.07233-.00257-.17774-.00257-.30682,0-.90171.12544-2.95835,2.12908-2.95835a2.0081,2.0081,0,0,1,2.02619,1.90341c.48429,4.344.52058,7.152.52058,7.22492a2.07627,2.07627,0,0,1-2.10629,2.16668C612.73383,506.9519,613.05268,503.58625,612.77532,500.88825Z"/>
        <path d="M656.96276,501.72982c-.07425-.79444-.24184-2.07846-.24184-2.8099a2.069,2.069,0,0,1,2.06918-2.3698,2.0465,2.0465,0,0,1,2.04423,1.87833,58.9892,58.9892,0,0,1,.58144,6.95867,2.05276,2.05276,0,0,1-2.13406,2.06749c-2.52978,0-2.23081-3.204-2.354-5.72156Z"/>
    </g>
</svg>
